<svg width="100" height="100" viewBox="0 0 100 100" fill="none" xmlns="http://www.w3.org/2000/svg">
<circle cx="50" cy="50" r="50" fill="#FBFBFB"/>
<path d="M49.952 27C54.176 27 57.5893 28.1947 60.192 30.584C62.7947 32.9733 64.096 36.1733 64.096 40.184C64.096 44.664 62.7093 47.992 59.936 50.168C57.1627 52.3013 53.408 53.368 48.672 53.368L48.48 59.448H43.424L43.168 49.336H45.024C49.248 49.336 52.5547 48.696 54.944 47.416C57.3333 46.136 58.528 43.7253 58.528 40.184C58.528 37.624 57.76 35.5973 56.224 34.104C54.688 32.6107 52.6187 31.864 50.016 31.864C47.3707 31.864 45.28 32.5893 43.744 34.04C42.2507 35.448 41.504 37.3893 41.504 39.864H36C36 37.304 36.576 35.064 37.728 33.144C38.88 31.1813 40.5013 29.6667 42.592 28.6C44.7253 27.5333 47.1787 27 49.952 27ZM45.92 72.568C44.8107 72.568 43.872 72.184 43.104 71.416C42.336 70.648 41.952 69.7093 41.952 68.6C41.952 67.4907 42.336 66.552 43.104 65.784C43.872 65.016 44.8107 64.632 45.92 64.632C46.9867 64.632 47.8827 65.016 48.608 65.784C49.376 66.552 49.76 67.4907 49.76 68.6C49.76 69.7093 49.376 70.648 48.608 71.416C47.8827 72.184 46.9867 72.568 45.92 72.568Z" fill="#A65638"/>
</svg>
