<svg width="34" height="39" viewBox="0 0 34 39" fill="none" xmlns="http://www.w3.org/2000/svg">
<path d="M6.85148 3.62415V9.32488V24.3249C6.85148 25.1533 7.52303 25.8249 8.35148 25.8249H12.1015C12.9299 25.8249 13.6015 26.4964 13.6015 27.3249V27.5952C13.6015 28.3102 13.0967 28.9258 12.3956 29.0661L2.20583 31.104C0.598066 31.4256 0.598051 33.7242 2.20583 34.0458L12.9389 36.1924C13.3241 36.2694 13.6015 36.6076 13.6015 37.0006C13.6015 37.4559 13.9705 37.8249 14.4257 37.8249H23.3515C24.1799 37.8249 24.8515 37.1533 24.8515 36.3249V27.3249C24.8515 26.4964 25.523 25.8249 26.3515 25.8249H30.8515C31.6799 25.8249 32.3515 25.1533 32.3515 24.3249V9.32488V3.50193C32.3515 2.38686 31.178 1.66162 30.1807 2.1603L25.1681 4.66653C24.9599 4.77066 24.7303 4.82488 24.4973 4.82488H13.9901C13.7353 4.82488 13.4845 4.75992 13.2617 4.63612L9.07988 2.31292C8.08013 1.75747 6.85148 2.48043 6.85148 3.62415Z" stroke="#1C1C1C" stroke-width="2"/>
</svg>
