<svg width="42" height="42" viewBox="0 0 42 42" fill="none" xmlns="http://www.w3.org/2000/svg">
<path d="M15 41H27C37 41 41 37 41 27V15C41 5 37 1 27 1H15C5 1 1 5 1 15V27C1 37 5 41 15 41Z" stroke="#292D32" stroke-width="2" stroke-linecap="round" stroke-linejoin="round"/>
<path d="M21 28C24.866 28 28 24.866 28 21C28 17.134 24.866 14 21 14C17.134 14 14 17.134 14 21C14 24.866 17.134 28 21 28Z" stroke="#292D32" stroke-width="2" stroke-linecap="round" stroke-linejoin="round"/>
<path d="M32.2722 11H32.2953" stroke="#292D32" stroke-width="3" stroke-linecap="round" stroke-linejoin="round"/>
</svg>
