<svg width="1877" height="474" viewBox="0 0 1877 474" fill="none" xmlns="http://www.w3.org/2000/svg">
<path d="M1409.3 49.2857L1455.91 3L1502.52 49.2857L1549.13 3L1595.74 49.2857L1642.35 3L1688.96 49.2857L1735.56 3L1782.17 49.2857L1828.78 3L1875.39 49.2857M1409.3 118.714L1455.91 72.4286L1502.52 118.714L1549.13 72.4286L1595.74 118.714L1642.35 72.4286L1688.96 118.714L1735.56 72.4286L1782.17 118.714L1828.78 72.4286L1875.39 118.714M1409.3 185.571L1455.91 139.286L1502.52 185.571L1549.13 139.286L1595.74 185.571L1642.35 139.286L1688.96 185.571L1735.56 139.286L1782.17 185.571L1828.78 139.286L1875.39 185.571M1409.3 255L1455.91 208.714L1502.52 255L1549.13 208.714L1595.74 255L1642.35 208.714L1688.96 255L1735.56 208.714L1782.17 255L1828.78 208.714L1875.39 255M1409.3 324.429L1455.91 278.143L1502.52 324.429L1549.13 278.143L1595.74 324.429L1642.35 278.143L1688.96 324.429L1735.56 278.143L1782.17 324.429L1828.78 278.143L1875.39 324.429M1409.3 391.286L1455.91 347.571L1502.52 391.286L1549.13 347.571L1595.74 391.286L1642.35 347.571L1688.96 391.286L1735.56 347.571L1782.17 391.286L1828.78 347.571L1875.39 391.286M1409.3 460.714L1455.91 414.429L1502.52 460.714L1549.13 414.429L1595.74 460.714L1642.35 414.429L1688.96 460.714L1735.56 414.429L1782.17 460.714L1828.78 414.429L1875.39 460.714M941.074 51.8571L987.682 5.57143L1034.29 51.8571L1080.9 5.57143L1127.51 51.8571L1174.12 5.57143L1220.73 51.8571L1267.34 5.57143L1313.94 51.8571L1360.55 5.57143L1407.16 51.8571L1453.77 5.57143M941.074 121.286L987.682 75L1034.29 121.286L1080.9 75L1127.51 121.286L1174.12 75L1220.73 121.286L1267.34 75L1313.94 121.286L1360.55 75L1407.16 121.286L1453.77 75M941.074 188.143L987.682 141.857L1034.29 188.143L1080.9 141.857L1127.51 188.143L1174.12 141.857L1220.73 188.143L1267.34 141.857L1313.94 188.143L1360.55 141.857L1407.16 188.143L1453.77 141.857M941.074 257.571L987.682 211.286L1034.29 257.571L1080.9 211.286L1127.51 257.571L1174.12 211.286L1220.73 257.571L1267.34 211.286L1313.94 257.571L1360.55 211.286L1407.16 257.571L1453.77 211.286M941.074 327L987.682 280.714L1034.29 327L1080.9 280.714L1127.51 327L1174.12 280.714L1220.73 327L1267.34 280.714L1313.94 327L1360.55 280.714L1407.16 327L1453.77 280.714M941.074 393.857L987.682 350.143L1034.29 393.857L1080.9 350.143L1127.51 393.857L1174.12 350.143L1220.73 393.857L1267.34 350.143L1313.94 393.857L1360.55 350.143L1407.16 393.857L1453.77 350.143M941.074 463.286L987.682 417L1034.29 463.286L1080.9 417L1127.51 463.286L1174.12 417L1220.73 463.286L1267.34 417L1313.94 463.286L1360.55 417L1407.16 463.286L1453.77 417M470.229 57L516.838 10.7143L563.447 57L610.056 10.7143L656.664 57L703.273 10.7143L749.882 57L796.491 10.7143L843.1 57L889.709 10.7143L936.318 57L982.927 10.7143M470.229 126.429L516.838 80.1429L563.447 126.429L610.056 80.1429L656.664 126.429L703.273 80.1429L749.882 126.429L796.491 80.1429L843.1 126.429L889.709 80.1429L936.318 126.429L982.927 80.1429M470.229 193.286L516.838 147L563.447 193.286L610.056 147L656.664 193.286L703.273 147L749.882 193.286L796.491 147L843.1 193.286L889.709 147L936.318 193.286L982.927 147M470.229 262.714L516.838 216.429L563.447 262.714L610.056 216.429L656.664 262.714L703.273 216.429L749.882 262.714L796.491 216.429L843.1 262.714L889.709 216.429L936.318 262.714L982.927 216.429M470.229 332.143L516.838 285.857L563.447 332.143L610.056 285.857L656.664 332.143L703.273 285.857L749.882 332.143L796.491 285.857L843.1 332.143L889.709 285.857L936.318 332.143L982.927 285.857M470.229 399L516.838 355.286L563.447 399L610.056 355.286L656.664 399L703.273 355.286L749.882 399L796.491 355.286L843.1 399L889.709 355.286L936.318 399L982.927 355.286M470.229 468.429L516.838 422.143L563.447 468.429L610.056 422.143L656.664 468.429L703.273 422.143L749.882 468.429L796.491 422.143L843.1 468.429L889.709 422.143L936.318 468.429L982.927 422.143M2 59.5714L48.6089 13.2857L95.2177 59.5714L141.827 13.2857L188.435 59.5714L235.044 13.2857L281.653 59.5714L328.262 13.2857L374.871 59.5714L421.48 13.2857L468.089 59.5714L514.698 13.2857M2 129L48.6089 82.7143L95.2177 129L141.827 82.7143L188.435 129L235.044 82.7143L281.653 129L328.262 82.7143L374.871 129L421.48 82.7143L468.089 129L514.698 82.7143M2 195.857L48.6089 149.571L95.2177 195.857L141.827 149.571L188.435 195.857L235.044 149.571L281.653 195.857L328.262 149.571L374.871 195.857L421.48 149.571L468.089 195.857L514.698 149.571M2 265.286L48.6089 219L95.2177 265.286L141.827 219L188.435 265.286L235.044 219L281.653 265.286L328.262 219L374.871 265.286L421.48 219L468.089 265.286L514.698 219M2 334.714L48.6089 288.429L95.2177 334.714L141.827 288.429L188.435 334.714L235.044 288.429L281.653 334.714L328.262 288.429L374.871 334.714L421.48 288.429L468.089 334.714L514.698 288.429M2 401.571L48.6089 357.857L95.2177 401.571L141.827 357.857L188.435 401.571L235.044 357.857L281.653 401.571L328.262 357.857L374.871 401.571L421.48 357.857L468.089 401.571L514.698 357.857M2 471L48.6089 424.714L95.2177 471L141.827 424.714L188.435 471L235.044 424.714L281.653 471L328.262 424.714L374.871 471L421.48 424.714L468.089 471L514.698 424.714" stroke="#A65638" stroke-opacity="0.1" stroke-width="3" stroke-linecap="round"/>
</svg>
