<svg width="60" height="60" viewBox="0 0 60 60" fill="none" xmlns="http://www.w3.org/2000/svg">
<path d="M5 29.9995H22.5C26.75 29.9995 30 33.2495 30 37.4995C30 41.7495 26.75 44.9995 22.5 44.9995H7.5C6 44.9995 5 43.9995 5 42.4995V17.4995C5 15.9995 6 14.9995 7.5 14.9995H20C24.25 14.9995 27.5 18.2495 27.5 22.4995C27.5 26.7495 24.25 29.9995 20 29.9995H5Z" stroke="#17191C" stroke-width="3" stroke-miterlimit="10"/>
<path d="M35 34.9995H55C55 29.4995 50.5 24.9995 45 24.9995C39.5 24.9995 35 29.4995 35 34.9995ZM35 34.9995C35 40.4995 39.5 44.9995 45 44.9995H49.25" stroke="#17191C" stroke-width="3" stroke-miterlimit="10" stroke-linecap="round" stroke-linejoin="round"/>
<path d="M48.75 18.7495H41.25" stroke="#17191C" stroke-width="3" stroke-miterlimit="10" stroke-linecap="round" stroke-linejoin="round"/>
</svg>
