<svg width="48" height="54" viewBox="0 0 48 54" fill="none" xmlns="http://www.w3.org/2000/svg">
<path d="M10.1668 4.26678V12.2232V33.1583C10.1668 34.3146 11.104 35.2519 12.2603 35.2519H17.4941C18.6503 35.2519 19.5876 36.1891 19.5876 37.3454V37.7226C19.5876 38.7206 18.8831 39.5798 17.9046 39.7755L3.68294 42.6198C1.43903 43.0686 1.43901 46.2767 3.68294 46.7256L18.6629 49.7216C19.2005 49.829 19.5876 50.3011 19.5876 50.8496C19.5876 51.485 20.1026 52 20.738 52H33.1955C34.3517 52 35.289 51.0627 35.289 49.9065V37.3454C35.289 36.1891 36.2263 35.2519 37.3825 35.2519H43.6631C44.8193 35.2519 45.7566 34.3146 45.7566 33.1583V12.2232V4.0962C45.7566 2.53993 44.1188 1.52773 42.7268 2.22372L35.7309 5.72161C35.4403 5.86694 35.1198 5.94262 34.7947 5.94262H20.13C19.7743 5.94262 19.4243 5.85195 19.1134 5.67917L13.2769 2.43674C11.8816 1.66151 10.1668 2.67052 10.1668 4.26678Z" stroke="#1C1C1C" stroke-width="3"/>
</svg>
