<svg width="58" height="58" viewBox="0 0 58 58" fill="none" xmlns="http://www.w3.org/2000/svg">
<path d="M20.9 56H37.1C50.6 56 56 50.6 56 37.1V20.9C56 7.4 50.6 2 37.1 2H20.9C7.4 2 2 7.4 2 20.9V37.1C2 50.6 7.4 56 20.9 56Z" stroke="#292D32" stroke-width="3" stroke-linecap="round" stroke-linejoin="round"/>
<path d="M28.9998 38.4498C34.2189 38.4498 38.4498 34.2189 38.4498 28.9998C38.4498 23.7807 34.2189 19.5498 28.9998 19.5498C23.7807 19.5498 19.5498 23.7807 19.5498 28.9998C19.5498 34.2189 23.7807 38.4498 28.9998 38.4498Z" stroke="#292D32" stroke-width="3" stroke-linecap="round" stroke-linejoin="round"/>
<path d="M44.2175 15.4999H44.2487" stroke="#292D32" stroke-width="3" stroke-linecap="round" stroke-linejoin="round"/>
</svg>
