<svg width="100" height="136" viewBox="0 0 100 136" fill="none" xmlns="http://www.w3.org/2000/svg">
<ellipse cx="50" cy="66.88" rx="50" ry="50.6667" fill="#FBEDDD"/>
<path d="M22.6457 132.484C22.6457 133.068 22.6457 133.36 22.6457 133.36C22.0974 133.36 21.6862 133.068 21.4121 132.484C19.4931 128.282 18.6707 123.787 18.9449 119.001C19.219 114.214 20.1785 109.311 21.8233 104.291C23.4681 99.2716 25.6612 94.2517 28.4026 89.2319C31.2811 84.0953 34.3651 79.1338 37.6548 74.3474C33.9539 72.246 30.8699 69.6194 28.4026 66.4674C26.0725 63.1986 24.0164 59.7548 22.2345 56.1358C20.0414 51.8164 18.191 47.4386 16.6832 43.0024C15.1754 38.5662 13.7362 34.2468 12.3655 30.0441C10.9948 25.8415 9.55561 21.8723 8.04785 18.1366C6.54009 14.2841 4.75819 10.8402 2.70215 7.80498C2.70215 7.33801 2.77068 7.1629 2.90775 7.27964C7.1569 9.84794 10.4466 13 12.7767 16.7357C15.244 20.4714 17.2315 24.499 18.7392 28.8184C20.3841 33.1378 21.8918 37.6323 23.2625 42.302C24.6332 46.8549 26.4151 51.2327 28.6082 55.4353C30.116 58.3539 31.7608 61.0973 33.5427 63.6656C35.4617 66.1171 37.7919 68.452 40.5333 70.67L43.2061 66.9927C42.2466 65.942 41.4927 65.0081 40.9445 64.1909C40.5333 63.257 40.5333 62.6733 40.9445 62.4398C41.2186 62.4398 41.6983 62.6733 42.3837 63.1402C43.069 63.4905 43.8229 64.0742 44.6453 64.8914C46.016 63.6072 47.044 62.3231 47.7294 61.0389C45.2621 57.1865 43.069 53.1589 41.1501 48.9562C39.3682 44.7535 37.6548 40.4341 36.01 35.9979C34.6393 32.2622 33.2001 28.6433 31.6923 25.141C30.1845 21.6388 28.06 17.8447 25.3186 13.7588C25.1815 13.5253 24.9759 13.3502 24.7018 13.2334C24.5647 13 24.5647 12.8248 24.7018 12.7081C24.9759 12.4746 25.4556 12.533 26.141 12.8832C29.0194 13.9339 31.5552 15.9185 33.7483 18.837C36.0785 21.6388 38.1345 24.7324 39.9165 28.1179C41.6983 31.5034 43.2061 34.8889 44.4397 38.2744C45.8104 41.5431 46.907 44.1698 47.7294 46.1544L52.0471 55.7856C59.723 46.2128 67.0562 36.8735 74.0467 27.7677C81.1743 18.6619 86.52 9.7312 90.0838 0.975619C90.3579 0.391914 90.495 0.100062 90.495 0.100062C90.7691 -0.133418 90.9062 0.0416953 90.9062 0.6254C91.0433 1.09237 91.1118 1.38422 91.1118 1.50096C90.4265 8.1552 88.3704 14.6927 84.9437 21.1135C81.517 27.5342 77.4049 33.955 72.6075 40.3757C67.9471 46.6798 62.8755 53.0421 57.3928 59.4629C51.91 65.8837 46.8384 72.3628 42.1781 78.9003C39.1626 83.103 36.3526 87.5391 33.7483 92.2088C31.144 96.8784 28.8824 101.606 26.9634 106.393C25.1815 111.062 23.8793 115.674 23.0569 120.227C22.2345 124.663 22.0974 128.749 22.6457 132.484ZM63.3553 86.6052C61.2993 89.407 59.1061 92.3255 56.776 95.3608C54.4458 98.2793 52.0471 101.139 49.5798 103.941C47.2497 106.743 44.988 109.428 42.7949 111.996C40.6018 114.565 38.6143 116.9 36.8324 119.001C36.147 119.818 35.5302 120.46 34.982 120.927C34.4337 121.277 34.091 121.394 33.9539 121.277C33.6798 121.277 33.6798 120.927 33.9539 120.227C34.2281 119.526 34.5022 118.884 34.7763 118.3C39.1626 108.728 44.6453 99.5051 51.2247 90.6328C57.9411 81.7604 64.7945 72.8298 71.785 63.8407C76.0342 58.2371 80.3519 52.6335 84.7381 47.03C89.1243 41.3097 92.9622 34.7722 96.2519 27.4175C96.526 26.8338 96.5946 26.4835 96.4575 26.3668C96.4575 26.2501 96.5946 26.1917 96.8687 26.1917C97.1429 26.3084 97.2799 26.5419 97.2799 26.8921C97.2799 27.2424 97.2799 27.5926 97.2799 27.9428C97.2799 30.5111 96.6631 33.4296 95.4295 36.6984C94.1959 39.9671 92.551 43.4694 90.495 47.2051C88.439 50.8241 86.1773 54.5598 83.7101 58.4122C81.2428 62.1479 78.707 65.7669 76.1027 69.2691C73.6355 72.7714 71.2368 76.0401 68.9066 79.0754C66.7135 81.9939 64.8631 84.5039 63.3553 86.6052ZM82.8877 44.7535C78.0902 51.0575 72.8131 57.595 67.0562 64.366C61.2993 71.137 55.6109 77.3827 49.991 83.103C49.7169 83.3364 49.1001 83.9202 48.1406 84.8541C47.1811 85.6713 46.4958 85.9631 46.0846 85.7296C45.8104 85.4962 45.879 84.9125 46.2902 83.9785C46.8384 82.9279 47.2497 82.2274 47.5238 81.8772C48.4833 80.2428 49.6484 78.375 51.0191 76.2736C52.3897 74.0555 53.829 71.8375 55.3367 69.6194C56.8445 67.4013 58.3523 65.2416 59.86 63.1402C61.5049 61.0389 62.9441 59.2294 64.1777 57.7118C64.726 57.0113 65.8225 55.5521 67.4674 53.334C69.1122 50.9992 70.9626 48.3141 73.0187 45.2789C75.0747 42.1269 77.2678 38.7414 79.598 35.1224C81.9282 31.5034 84.0527 28.0012 85.9717 24.6157C87.8907 21.1135 89.5355 17.9031 90.9062 14.9846C92.2769 11.9493 93.0308 9.55609 93.1678 7.80498C93.442 6.63756 93.6476 6.05385 93.7847 6.05385C94.0588 6.05385 94.2644 6.34571 94.4015 6.92942C94.5385 7.39638 94.6756 7.7466 94.8127 7.98009C95.361 10.4316 95.361 13.2918 94.8127 16.5605C94.2644 19.8293 93.3735 23.2148 92.1398 26.717C91.0433 30.1025 89.604 33.4296 87.8222 36.6984C86.1773 39.8504 84.5325 42.5354 82.8877 44.7535ZM28.8138 24.7908C30.3216 29.1102 31.7608 33.7215 33.1315 38.6246C34.6393 43.411 35.8729 48.0806 36.8324 52.6335C36.9695 52.867 36.9695 53.2756 36.8324 53.8593C36.8324 54.3263 36.6953 54.6765 36.4212 54.91C36.147 55.0267 35.7358 54.8516 35.1876 54.3847C34.6393 53.9177 34.2966 53.5675 34.1595 53.334C33.4742 52.5168 32.7203 51.4661 31.8979 50.182C31.0755 48.8978 30.3216 47.5553 29.6363 46.1544C28.9509 44.7535 28.2656 43.3526 27.5802 41.9517C27.0319 40.5508 26.5522 39.3251 26.141 38.2744C25.7298 37.107 24.8388 35.1224 23.4681 32.3206C22.2345 29.4021 20.7268 26.3668 18.9449 23.2148C17.3 20.0628 15.5181 17.0859 13.5992 14.2841C11.8173 11.4823 10.1724 9.55609 8.66466 8.50543C7.84225 7.80497 7.56811 7.45475 7.84224 7.45475C7.97931 7.33801 8.25345 7.33801 8.66466 7.45475C9.07587 7.57149 9.41854 7.68823 9.69268 7.80498C11.8858 8.38868 14.0104 9.32261 16.0664 10.6068C18.2595 11.8909 20.1785 13.3502 21.8233 14.9846C23.6052 16.6189 25.0444 18.3117 26.141 20.0628C27.3746 21.6972 28.2656 23.2732 28.8138 24.7908ZM30.0475 123.379C29.4992 125.597 29.088 127.581 28.8138 129.332C28.6768 130.967 28.6082 132.426 28.6082 133.71C28.6082 133.944 28.6082 134.236 28.6082 134.586C28.6082 134.936 28.4026 135.111 27.9914 135.111C27.7173 135.111 27.3746 134.936 26.9634 134.586C26.6893 134.352 26.4837 134.06 26.3466 133.71C26.0725 133.127 25.7983 132.543 25.5242 131.959C25.25 131.375 25.0444 130.733 24.9074 130.033C24.7703 129.216 24.7703 128.223 24.9074 127.056C25.0444 125.772 25.3186 124.196 25.7298 122.328C26.141 120.81 26.7578 118.942 27.5802 116.724C28.4026 114.506 29.2936 112.405 30.2531 110.42C31.2125 108.319 32.1035 106.626 32.9259 105.342C33.8854 104.058 34.6393 103.533 35.1876 103.766C35.3246 103.883 35.3246 104.291 35.1876 104.992C35.1876 105.692 35.0505 106.51 34.7763 107.443C34.5022 108.261 34.2281 109.078 33.9539 109.895C33.6798 110.712 33.4742 111.296 33.3371 111.646C32.6518 113.631 32.035 115.615 31.4867 117.6C31.0755 119.468 30.5957 121.394 30.0475 123.379Z" fill="#1C1C1C"/>
</svg>
