<svg width="75" height="100" viewBox="0 0 75 100" fill="none" xmlns="http://www.w3.org/2000/svg">
<ellipse cx="37.0066" cy="49.5" rx="37.0066" ry="37.5" fill="#FBEDDD"/>
<path d="M16.7609 98.0559C16.7609 98.4879 16.7609 98.7039 16.7609 98.7039C16.3551 98.7039 16.0507 98.4879 15.8478 98.0559C14.4275 94.9454 13.8188 91.6188 14.0217 88.0763C14.2246 84.5337 14.9348 80.9048 16.1522 77.1894C17.3696 73.4741 18.9928 69.7587 21.0217 66.0433C23.1522 62.2416 25.4348 58.5694 27.8696 55.0268C25.1304 53.4716 22.8478 51.5275 21.0217 49.1946C19.2971 46.7753 17.7754 44.2264 16.4565 41.5479C14.8333 38.3509 13.4638 35.1108 12.3478 31.8274C11.2319 28.5441 10.1667 25.3472 9.15217 22.2366C8.13768 19.1261 7.07246 16.1884 5.95652 13.4234C4.84058 10.5721 3.52174 8.0232 2 5.77671C2 5.43109 2.05072 5.30149 2.15217 5.38789C5.2971 7.28877 7.73188 9.62168 9.45652 12.3866C11.2826 15.1515 12.7536 18.1324 13.8696 21.3294C15.087 24.5263 16.2029 27.8529 17.2174 31.309C18.2319 34.6788 19.5507 37.9189 21.1739 41.0294C22.2899 43.1895 23.5072 45.22 24.8261 47.1209C26.2464 48.9354 27.971 50.6635 30 52.3051L31.9783 49.5834C31.2681 48.8058 30.7101 48.1145 30.3043 47.5097C30 46.8185 30 46.3865 30.3043 46.2137C30.5072 46.2137 30.8623 46.3865 31.3696 46.7321C31.8768 46.9913 32.4348 47.4233 33.0435 48.0281C34.058 47.0777 34.8188 46.1273 35.3261 45.1768C33.5 42.3255 31.8768 39.3446 30.4565 36.234C29.1377 33.1235 27.8696 29.9266 26.6522 26.6432C25.6377 23.8783 24.5725 21.1998 23.4565 18.6077C22.3406 16.0156 20.7681 13.2074 18.7391 10.1833C18.6377 10.0105 18.4855 9.88089 18.2826 9.79448C18.1812 9.62167 18.1812 9.49207 18.2826 9.40567C18.4855 9.23286 18.8406 9.27606 19.3478 9.53527C21.4783 10.3129 23.3551 11.7818 24.9783 13.9419C26.7029 16.0156 28.2246 18.3053 29.5435 20.811C30.8623 23.3167 31.9783 25.8224 32.8913 28.3281C33.9058 30.7474 34.7174 32.6915 35.3261 34.1603L38.5217 41.2887C44.2029 34.2035 49.6304 27.2912 54.8043 20.5517C60.0797 13.8123 64.0362 7.20237 66.6739 0.722086C66.8768 0.290068 66.9783 0.0740588 66.9783 0.0740588C67.1812 -0.0987465 67.2826 0.03086 67.2826 0.462878C67.3841 0.808494 67.4348 1.0245 67.4348 1.11091C66.9275 6.03592 65.4058 10.8745 62.8696 15.6267C60.3333 20.3789 57.2899 25.1311 53.7391 29.8834C50.2899 34.5492 46.5362 39.2582 42.4783 44.0104C38.4203 48.7626 34.6667 53.558 31.2174 58.3966C28.9855 61.5071 26.9058 64.7905 24.9783 68.2466C23.0507 71.7028 21.3768 75.2021 19.9565 78.7447C18.6377 82.2008 17.6739 85.6138 17.0652 88.9835C16.4565 92.2669 16.3551 95.291 16.7609 98.0559ZM46.8913 64.0992C45.3696 66.1729 43.7464 68.333 42.0217 70.5795C40.2971 72.7396 38.5217 74.8565 36.6957 76.9302C34.971 79.0039 33.2971 80.9912 31.6739 82.8921C30.0507 84.7929 28.5797 86.521 27.2609 88.0763C26.7536 88.6811 26.2971 89.1563 25.8913 89.5019C25.4855 89.7612 25.2319 89.8476 25.1304 89.7612C24.9275 89.7612 24.9275 89.5019 25.1304 88.9835C25.3333 88.4651 25.5362 87.9899 25.7391 87.5579C28.9855 80.4728 33.0435 73.6469 37.913 67.0802C42.8841 60.5135 47.9565 53.9036 53.1304 47.2505C56.2754 43.1031 59.471 38.9557 62.7174 34.8084C65.9638 30.5746 68.8043 25.736 71.2391 20.2925C71.442 19.8605 71.4928 19.6013 71.3913 19.5149C71.3913 19.4285 71.4928 19.3853 71.6957 19.3853C71.8986 19.4717 72 19.6445 72 19.9037C72 20.1629 72 20.4221 72 20.6814C72 22.5822 71.5435 24.7423 70.6304 27.1616C69.7174 29.5809 68.5 32.173 66.9783 34.938C65.4565 37.6165 63.7826 40.3814 61.9565 43.2327C60.1304 45.9977 58.2536 48.6762 56.3261 51.2683C54.5 53.8604 52.7246 56.2797 51 58.5262C49.3768 60.6863 48.0072 62.544 46.8913 64.0992ZM61.3478 33.1235C57.7971 37.7893 53.8913 42.6279 49.6304 47.6393C45.3696 52.6507 41.1594 57.2733 37 61.5071C36.7971 61.6799 36.3406 62.112 35.6304 62.8032C34.9203 63.408 34.413 63.624 34.1087 63.4512C33.9058 63.2784 33.9565 62.8464 34.2609 62.1552C34.6667 61.3775 34.971 60.8591 35.1739 60.5999C35.8841 59.3902 36.7464 58.0078 37.7609 56.4525C38.7754 54.8108 39.8406 53.1692 40.9565 51.5275C42.0725 49.8858 43.1884 48.2874 44.3044 46.7321C45.5217 45.1768 46.587 43.8376 47.5 42.7143C47.9058 42.1959 48.7174 41.1158 49.9348 39.4742C51.1522 37.7461 52.5217 35.7588 54.0435 33.5123C55.5652 31.1794 57.1884 28.6737 58.913 25.9952C60.6377 23.3167 62.2101 20.7246 63.6304 18.2188C65.0507 15.6267 66.2681 13.2506 67.2826 11.0905C68.2971 8.84404 68.8551 7.07276 68.9565 5.77671C69.1594 4.91267 69.3116 4.48065 69.413 4.48065C69.6159 4.48065 69.7681 4.69666 69.8696 5.12868C69.971 5.47429 70.0725 5.7335 70.1739 5.90631C70.5797 7.72079 70.5797 9.83768 70.1739 12.257C69.7681 14.6763 69.1087 17.182 68.1957 19.7741C67.3841 22.2798 66.3188 24.7423 65 27.1616C63.7826 29.4945 62.5652 31.4818 61.3478 33.1235ZM21.3261 18.3485C22.442 21.5454 23.5072 24.9583 24.5217 28.5873C25.6377 32.1299 26.5507 35.586 27.2609 38.9557C27.3623 39.1286 27.3623 39.431 27.2609 39.863C27.2609 40.2086 27.1594 40.4678 26.9565 40.6406C26.7536 40.727 26.4493 40.5974 26.0435 40.2518C25.6377 39.9062 25.3841 39.647 25.2826 39.4742C24.7754 38.8693 24.2174 38.0917 23.6087 37.1413C23 36.1908 22.442 35.1972 21.9348 34.1603C21.4275 33.1235 20.9203 32.0867 20.413 31.0498C20.0072 30.013 19.6522 29.1057 19.3478 28.3281C19.0435 27.464 18.3841 25.9952 17.3696 23.9215C16.4565 21.7614 15.3406 19.5149 14.0217 17.182C12.8043 14.8491 11.4855 12.6458 10.0652 10.5721C8.74638 8.49842 7.52899 7.07276 6.41304 6.29513C5.80435 5.77671 5.60145 5.51749 5.80435 5.51749C5.9058 5.43109 6.1087 5.43109 6.41304 5.51749C6.71739 5.6039 6.97101 5.6903 7.17391 5.77671C8.7971 6.20873 10.3696 6.89996 11.8913 7.8504C13.5145 8.80084 14.9348 9.88088 16.1522 11.0905C17.471 12.3002 18.5362 13.553 19.3478 14.8491C20.2609 16.0588 20.9203 17.2252 21.3261 18.3485ZM22.2391 91.3164C21.8333 92.9581 21.529 94.427 21.3261 95.723C21.2246 96.9327 21.1739 98.0127 21.1739 98.9632C21.1739 99.136 21.1739 99.352 21.1739 99.6112C21.1739 99.8704 21.0217 100 20.7174 100C20.5145 100 20.2609 99.8704 19.9565 99.6112C19.7536 99.4384 19.6014 99.2224 19.5 98.9632C19.2971 98.5311 19.0942 98.0991 18.8913 97.6671C18.6884 97.2351 18.5362 96.7599 18.4348 96.2414C18.3333 95.6366 18.3333 94.9022 18.4348 94.0381C18.5362 93.0877 18.7391 91.9212 19.0435 90.5388C19.3478 89.4155 19.8043 88.0331 20.413 86.3914C21.0217 84.7497 21.6812 83.1945 22.3913 81.7256C23.1014 80.1703 23.7609 78.9175 24.3696 77.967C25.0797 77.0166 25.6377 76.6278 26.0435 76.8006C26.1449 76.887 26.1449 77.1894 26.0435 77.7078C26.0435 78.2263 25.942 78.8311 25.7391 79.5223C25.5362 80.1271 25.3333 80.732 25.1304 81.3368C24.9275 81.9416 24.7754 82.3736 24.6739 82.6328C24.1667 84.1017 23.7101 85.5706 23.3043 87.0394C23 88.4219 22.6449 89.8476 22.2391 91.3164Z" fill="#1C1C1C"/>
</svg>
